<svg width="16" height="16" viewBox="0 0 16 16" fill="none" xmlns="http://www.w3.org/2000/svg">
<mask id="mask0_51_644" style="mask-type:alpha" maskUnits="userSpaceOnUse" x="0" y="0" width="16" height="16">
<path fill-rule="evenodd" clip-rule="evenodd" d="M8.00008 2C4.68637 2 2.00008 4.68629 2.00008 8C2.00008 11.3137 4.68637 14 8.00008 14C11.3138 14 14.0001 11.3137 14.0001 8C14.0001 4.68629 11.3138 2 8.00008 2ZM0.666748 8C0.666748 3.94991 3.94999 0.666664 8.00008 0.666664C12.0502 0.666664 15.3334 3.94991 15.3334 8C15.3334 12.0501 12.0502 15.3333 8.00008 15.3333C3.94999 15.3333 0.666748 12.0501 0.666748 8Z" fill="#1F2F42"/>
<path fill-rule="evenodd" clip-rule="evenodd" d="M8.00016 4.66666C8.36835 4.66666 8.66683 4.96514 8.66683 5.33333V10.6667C8.66683 11.0349 8.36835 11.3333 8.00016 11.3333C7.63197 11.3333 7.3335 11.0349 7.3335 10.6667V5.33333C7.3335 4.96514 7.63197 4.66666 8.00016 4.66666Z" fill="#1F2F42"/>
<path fill-rule="evenodd" clip-rule="evenodd" d="M4.66675 7.99999C4.66675 7.63181 4.96522 7.33333 5.33341 7.33333H10.6667C11.0349 7.33333 11.3334 7.63181 11.3334 7.99999C11.3334 8.36818 11.0349 8.66666 10.6667 8.66666H5.33341C4.96522 8.66666 4.66675 8.36818 4.66675 7.99999Z" fill="#1F2F42"/>
</mask>
<g mask="url(#mask0_51_644)">
<rect width="16" height="16" fill="#5D738D"/>
</g>
</svg>
