<svg width="35" height="35" viewBox="0 0 35 35" fill="none" xmlns="http://www.w3.org/2000/svg">
<path d="M25.3561 0.395585H25.3893L25.4221 0.389727C25.4673 0.381633 25.5131 0.376755 25.559 0.375131C25.6891 0.372997 25.8182 0.396936 25.9388 0.44554L26.079 0.0977212L25.9388 0.44554C26.0602 0.494464 26.1705 0.56737 26.263 0.659891C26.3556 0.752411 26.4285 0.862643 26.4774 0.983985C26.5263 1.10532 26.5502 1.23528 26.5478 1.36608L26.5477 1.36608V1.37323V17.5134V17.8884H26.9227L33.647 17.8884L33.6484 17.8884C33.7762 17.8879 33.9028 17.9126 34.021 17.9611C34.1393 18.0095 34.2468 18.0807 34.3375 18.1707C34.4282 18.2607 34.5002 18.3676 34.5496 18.4854C34.5988 18.603 34.6244 18.729 34.625 18.8564C34.625 18.8567 34.625 18.857 34.625 18.8573L34.625 29.6211C34.625 32.2121 32.6076 34.3349 30.0619 34.5718L30.0257 34.5752L29.9908 34.5855C29.8778 34.6187 29.7596 34.6312 29.642 34.6222L29.6278 34.6211H29.6134H5.38658C2.63258 34.6211 0.37501 32.3677 0.37501 29.6211V1.37323H0.375012L0.375007 1.37181C0.374524 1.2438 0.399327 1.11695 0.447996 0.998537C0.496665 0.880123 0.568244 0.772476 0.658631 0.681772C0.749018 0.591068 0.856434 0.519092 0.974721 0.469979C1.09301 0.420867 1.21983 0.395584 1.34792 0.395585H1.34792H25.3561ZM2.69075 2.3407H2.31575V2.7157V29.6081C2.3099 30.0128 2.38521 30.4145 2.53723 30.7896C2.68963 31.1656 2.91603 31.5072 3.20298 31.7941L3.46811 31.5289L3.20298 31.7941C3.48993 32.081 3.83158 32.3073 4.20767 32.4596L4.34847 32.1121L4.20768 32.4596C4.58282 32.6116 4.9846 32.6869 5.3893 32.681H24.9847H25.6413L25.3077 32.1155C24.8701 31.3737 24.6069 30.5235 24.6069 29.616V19.0695V19.0367L24.6013 19.0043C24.5816 18.8927 24.5816 18.7784 24.6013 18.6667L24.6069 18.6344V18.6016V2.7157V2.3407H24.2319H2.69075ZM6.73449 10.4159V10.4158L6.72823 10.4159C6.47597 10.4201 6.23196 10.3262 6.04766 10.1541C5.86336 9.98188 5.75317 9.74489 5.74032 9.49308C5.72746 9.24127 5.81294 8.9943 5.97874 8.80426C6.14329 8.61566 6.37419 8.49777 6.62338 8.47499C6.65295 8.47343 6.67045 8.47216 6.68236 8.47129C6.6982 8.47013 6.70413 8.4697 6.71539 8.47028L6.72494 8.47076H6.73449H20.1831C20.4412 8.47076 20.6887 8.57325 20.8711 8.75565C21.0536 8.93805 21.156 9.18542 21.156 9.44332C21.156 9.70123 21.0536 9.94859 20.8711 10.131C20.6887 10.3134 20.4412 10.4159 20.1831 10.4159H6.73449ZM6.61623 13.8554L6.61626 13.8554C6.64928 13.8537 6.68237 13.8537 6.7154 13.8554L6.72494 13.8559H6.73449H20.1831C20.4412 13.8559 20.6887 13.9584 20.8711 14.1408C21.0536 14.3232 21.156 14.5706 21.156 14.8285C21.156 15.0864 21.0536 15.3337 20.8711 15.5161C20.6887 15.6985 20.4412 15.801 20.1831 15.801H6.73449H6.72495L6.71542 15.8015C6.45723 15.8147 6.2044 15.7247 6.01256 15.5515C5.82072 15.3783 5.70558 15.1361 5.69243 14.878C5.67928 14.62 5.7692 14.3673 5.94243 14.1755C6.11567 13.9837 6.35804 13.8686 6.61623 13.8554ZM6.71148 19.2302L6.72305 19.2309L6.73464 19.2309L20.1831 19.2258C20.1832 19.2258 20.1832 19.2258 20.1832 19.2258C20.4413 19.2258 20.6887 19.3283 20.8711 19.5107C21.0536 19.6931 21.156 19.9405 21.156 20.1984C21.156 20.4563 21.0536 20.7036 20.8711 20.886C20.6887 21.0684 20.4412 21.1709 20.1831 21.1709H6.73449H6.72297L6.71148 21.1716C6.57892 21.1798 6.44609 21.1607 6.32118 21.1156C6.19628 21.0705 6.08193 21.0003 5.9852 20.9094C5.88846 20.8184 5.81138 20.7086 5.75869 20.5868C5.706 20.465 5.67882 20.3336 5.67882 20.2009C5.67882 20.0682 5.706 19.9368 5.75869 19.815C5.81137 19.6932 5.88846 19.5834 5.9852 19.4924L5.72834 19.2192L5.9852 19.4924C6.08193 19.4015 6.19627 19.3313 6.32118 19.2862L6.19382 18.9335L6.32118 19.2862C6.44609 19.2411 6.57892 19.222 6.71148 19.2302ZM26.9227 19.8284H26.5479L26.5477 20.2032L26.5426 29.613C26.5367 30.0178 26.612 30.4196 26.7641 30.7947C26.9165 31.1707 27.1429 31.5123 27.4298 31.7992C27.7168 32.0861 28.0584 32.3124 28.4345 32.4647L28.5753 32.1172L28.4345 32.4647C28.8098 32.6167 29.2116 32.692 29.6164 32.6861L29.6267 32.6861L29.63 32.6861C31.3478 32.6803 32.6843 31.3323 32.6843 29.6211V20.2034V19.8284H32.3093H26.9227ZM5.94243 24.9305C6.11369 24.741 6.3525 24.6263 6.60737 24.611L6.61124 24.611L6.62064 24.6105C6.65244 24.6089 6.6843 24.6089 6.71611 24.6105L6.7253 24.6109H6.73449H20.1831C20.4412 24.6109 20.6887 24.7134 20.8711 24.8958C21.0536 25.0782 21.156 25.3256 21.156 25.5835C21.156 25.8414 21.0536 26.0888 20.8711 26.2712C20.6887 26.4536 20.4412 26.5561 20.1831 26.5561H6.73449H6.72495L6.71542 26.5566C6.45723 26.5697 6.2044 26.4798 6.01256 26.3066C5.82072 26.1334 5.70558 25.8911 5.69243 25.6331C5.67928 25.375 5.7692 25.1223 5.94243 24.9305Z" fill="#5D738D" stroke="white" stroke-width="0.75"/>
</svg>
