<svg width="16" height="16" viewBox="0 0 16 16" fill="none" xmlns="http://www.w3.org/2000/svg">
<mask id="mask0_66_769" style="mask-type:alpha" maskUnits="userSpaceOnUse" x="1" y="0" width="14" height="16">
<path fill-rule="evenodd" clip-rule="evenodd" d="M3.33325 3.33333C2.96506 3.33333 2.66659 3.63181 2.66659 4V13.3333C2.66659 13.7015 2.96506 14 3.33325 14H12.6666C13.0348 14 13.3333 13.7015 13.3333 13.3333V4C13.3333 3.63181 13.0348 3.33333 12.6666 3.33333H3.33325ZM1.33325 4C1.33325 2.89543 2.22868 2 3.33325 2H12.6666C13.7712 2 14.6666 2.89543 14.6666 4V13.3333C14.6666 14.4379 13.7712 15.3333 12.6666 15.3333H3.33325C2.22868 15.3333 1.33325 14.4379 1.33325 13.3333V4Z" fill="#1F2F42"/>
<path fill-rule="evenodd" clip-rule="evenodd" d="M10.6666 0.666668C11.0348 0.666668 11.3333 0.965145 11.3333 1.33333V4C11.3333 4.36819 11.0348 4.66667 10.6666 4.66667C10.2984 4.66667 9.99992 4.36819 9.99992 4V1.33333C9.99992 0.965145 10.2984 0.666668 10.6666 0.666668Z" fill="#1F2F42"/>
<path fill-rule="evenodd" clip-rule="evenodd" d="M5.33325 0.666668C5.70144 0.666668 5.99992 0.965145 5.99992 1.33333V4C5.99992 4.36819 5.70144 4.66667 5.33325 4.66667C4.96506 4.66667 4.66659 4.36819 4.66659 4V1.33333C4.66659 0.965145 4.96506 0.666668 5.33325 0.666668Z" fill="#1F2F42"/>
<path fill-rule="evenodd" clip-rule="evenodd" d="M1.33325 6.66667C1.33325 6.29848 1.63173 6 1.99992 6H13.9999C14.3681 6 14.6666 6.29848 14.6666 6.66667C14.6666 7.03486 14.3681 7.33333 13.9999 7.33333H1.99992C1.63173 7.33333 1.33325 7.03486 1.33325 6.66667Z" fill="#1F2F42"/>
</mask>
<g mask="url(#mask0_66_769)">
<rect width="16" height="16" fill="#5D738D"/>
</g>
</svg>
