<svg width="16" height="16" viewBox="0 0 16 16" fill="none" xmlns="http://www.w3.org/2000/svg">
<mask id="mask0_66_773" style="mask-type:alpha" maskUnits="userSpaceOnUse" x="1" y="1" width="14" height="14">
<path fill-rule="evenodd" clip-rule="evenodd" d="M13.3333 7.66667C13.3333 4.04653 9.3774 1.5399 6.10051 3.19507L6.09798 3.19634L6.09798 3.19634C3.68566 4.40197 2.63757 7.47596 3.86167 9.89943C3.94181 10.0581 3.95527 10.2422 3.89906 10.4108L3.05403 12.9459L5.58912 12.1009C5.75775 12.0447 5.94184 12.0581 6.10051 12.1383C9.33823 13.7737 13.3426 11.2273 13.3333 7.66841L13.3333 7.66667ZM14.6666 7.66592C14.6661 3.07586 9.68412 -0.107649 5.50063 2.0043C2.5228 3.49343 1.18397 7.19709 2.54926 10.2438L1.36748 13.7892C1.28763 14.0287 1.34998 14.2928 1.52853 14.4714C1.70709 14.65 1.9712 14.7123 2.21076 14.6325L5.75591 13.4507C9.84744 15.2882 14.6775 12.1064 14.6666 7.66592Z" fill="#798DA4"/>
</mask>
<g mask="url(#mask0_66_773)">
<rect width="16" height="16" fill="#5D738D"/>
</g>
</svg>
