<svg width="16" height="16" viewBox="0 0 16 16" fill="none" xmlns="http://www.w3.org/2000/svg">
<mask id="mask0_66_762" style="mask-type:alpha" maskUnits="userSpaceOnUse" x="3" y="2" width="10" height="12">
<path fill-rule="evenodd" clip-rule="evenodd" d="M3.99992 10C4.36811 10 4.66659 10.2985 4.66659 10.6667V13.3333C4.66659 13.7015 4.36811 14 3.99992 14C3.63173 14 3.33325 13.7015 3.33325 13.3333V10.6667C3.33325 10.2985 3.63173 10 3.99992 10Z" fill="#1F2F42"/>
<path fill-rule="evenodd" clip-rule="evenodd" d="M7.99992 6C8.36811 6 8.66659 6.29848 8.66659 6.66667V13.3333C8.66659 13.7015 8.36811 14 7.99992 14C7.63173 14 7.33325 13.7015 7.33325 13.3333V6.66667C7.33325 6.29848 7.63173 6 7.99992 6Z" fill="#1F2F42"/>
<path fill-rule="evenodd" clip-rule="evenodd" d="M11.9999 2C12.3681 2 12.6666 2.29848 12.6666 2.66667V13.3333C12.6666 13.7015 12.3681 14 11.9999 14C11.6317 14 11.3333 13.7015 11.3333 13.3333V2.66667C11.3333 2.29848 11.6317 2 11.9999 2Z" fill="#1F2F42"/>
</mask>
<g mask="url(#mask0_66_762)">
<rect width="24" height="24" fill="#5D738D"/>
</g>
</svg>
