<svg width="16" height="16" viewBox="0 0 16 16" fill="none" xmlns="http://www.w3.org/2000/svg">
<mask id="mask0_66_746" style="mask-type:alpha" maskUnits="userSpaceOnUse" x="2" y="2" width="12" height="12">
<path fill-rule="evenodd" clip-rule="evenodd" d="M9.97578 4.57576C10.2101 4.34145 10.59 4.34145 10.8243 4.57576L13.8243 7.57576C14.0586 7.81007 14.0586 8.18997 13.8243 8.42429L10.8243 11.4243C10.59 11.6586 10.2101 11.6586 9.97578 11.4243C9.74147 11.19 9.74147 10.8101 9.97578 10.5758L12.5515 8.00002L9.97578 5.42429C9.74147 5.18997 9.74147 4.81007 9.97578 4.57576Z" fill="#1F2F42"/>
<path fill-rule="evenodd" clip-rule="evenodd" d="M3.8 3.2C3.64087 3.2 3.48826 3.26321 3.37574 3.37574C3.26321 3.48826 3.2 3.64087 3.2 3.8V12.2C3.2 12.3591 3.26321 12.5117 3.37574 12.6243C3.48826 12.7368 3.64087 12.8 3.8 12.8H6.2C6.53137 12.8 6.8 13.0686 6.8 13.4C6.8 13.7314 6.53137 14 6.2 14H3.8C3.32261 14 2.86477 13.8104 2.52721 13.4728C2.18964 13.1352 2 12.6774 2 12.2V3.8C2 3.32261 2.18964 2.86477 2.52721 2.52721C2.86477 2.18964 3.32261 2 3.8 2H6.2C6.53137 2 6.8 2.26863 6.8 2.6C6.8 2.93137 6.53137 3.2 6.2 3.2H3.8Z" fill="#1F2F42"/>
<path fill-rule="evenodd" clip-rule="evenodd" d="M5.6001 8.00002C5.6001 7.66865 5.86873 7.40002 6.2001 7.40002H13.4001C13.7315 7.40002 14.0001 7.66865 14.0001 8.00002C14.0001 8.3314 13.7315 8.60002 13.4001 8.60002H6.2001C5.86873 8.60002 5.6001 8.3314 5.6001 8.00002Z" fill="#1F2F42"/>
</mask>
<g mask="url(#mask0_66_746)">
<rect width="16" height="16" fill="#5D738D"/>
</g>
</svg>
