<svg width="20" height="18" viewBox="0 0 20 18" fill="none" xmlns="http://www.w3.org/2000/svg">
<path d="M0.6429 3.2139H0.734192C0.874519 3.76524 1.19455 4.25411 1.64371 4.60328C2.09288 4.95244 2.64558 5.142 3.2145 5.142C3.78342 5.142 4.33612 4.95244 4.78529 4.60328C5.23446 4.25411 5.55448 3.76524 5.69481 3.2139H18.6441C18.8146 3.2139 18.9781 3.14616 19.0987 3.0256C19.2193 2.90503 19.287 2.74151 19.287 2.571C19.287 2.40049 19.2193 2.23697 19.0987 2.1164C18.9781 1.99583 18.8146 1.9281 18.6441 1.9281H5.69481C5.55448 1.37676 5.23446 0.887888 4.78529 0.538722C4.33612 0.189556 3.78342 0 3.2145 0C2.64558 0 2.09288 0.189556 1.64371 0.538722C1.19455 0.887888 0.874519 1.37676 0.734192 1.9281H0.6429C0.472392 1.9281 0.308868 1.99583 0.188301 2.1164C0.0677339 2.23697 0 2.40049 0 2.571C0 2.74151 0.0677339 2.90503 0.188301 3.0256C0.308868 3.14616 0.472392 3.2139 0.6429 3.2139ZM3.2145 1.2852C3.46881 1.2852 3.7174 1.36061 3.92885 1.5019C4.1403 1.64318 4.30511 1.844 4.40243 2.07894C4.49974 2.31389 4.52521 2.57243 4.47559 2.82185C4.42598 3.07127 4.30352 3.30037 4.1237 3.4802C3.94388 3.66002 3.71477 3.78248 3.46535 3.83209C3.21593 3.88171 2.9574 3.85624 2.72245 3.75892C2.4875 3.6616 2.28668 3.4968 2.1454 3.28535C2.00411 3.0739 1.9287 2.82531 1.9287 2.571C1.9287 2.22998 2.06417 1.90294 2.3053 1.6618C2.54644 1.42067 2.87349 1.2852 3.2145 1.2852ZM18.6441 8.3571H18.5528C18.4125 7.80576 18.0925 7.31689 17.6433 6.96772C17.1941 6.61856 16.6414 6.429 16.0725 6.429C15.5036 6.429 14.9509 6.61856 14.5017 6.96772C14.0525 7.31689 13.7325 7.80576 13.5922 8.3571H0.6429C0.472392 8.3571 0.308868 8.42483 0.188301 8.5454C0.0677339 8.66597 0 8.82949 0 9C0 9.17051 0.0677339 9.33403 0.188301 9.4546C0.308868 9.57517 0.472392 9.6429 0.6429 9.6429H13.5922C13.7325 10.1942 14.0525 10.6831 14.5017 11.0323C14.9509 11.3814 15.5036 11.571 16.0725 11.571C16.6414 11.571 17.1941 11.3814 17.6433 11.0323C18.0925 10.6831 18.4125 10.1942 18.5528 9.6429H18.6441C18.8146 9.6429 18.9781 9.57517 19.0987 9.4546C19.2193 9.33403 19.287 9.17051 19.287 9C19.287 8.82949 19.2193 8.66597 19.0987 8.5454C18.9781 8.42483 18.8146 8.3571 18.6441 8.3571ZM16.0725 10.2858C15.8182 10.2858 15.5696 10.2104 15.3581 10.0691C15.1467 9.92782 14.9819 9.727 14.8846 9.49205C14.7873 9.2571 14.7618 8.99857 14.8114 8.74915C14.861 8.49973 14.9835 8.27062 15.1633 8.0908C15.3431 7.91098 15.5722 7.78852 15.8217 7.73891C16.0711 7.68929 16.3296 7.71476 16.5646 7.81207C16.7995 7.90939 17.0003 8.0742 17.1416 8.28565C17.2829 8.4971 17.3583 8.74569 17.3583 9C17.3583 9.34101 17.2228 9.66806 16.9817 9.9092C16.7406 10.1503 16.4135 10.2858 16.0725 10.2858ZM18.6441 14.7861H12.1238C11.9835 14.2348 11.6635 13.7459 11.2143 13.3967C10.7651 13.0476 10.2124 12.858 9.6435 12.858C9.07458 12.858 8.52188 13.0476 8.07271 13.3967C7.62355 13.7459 7.30352 14.2348 7.16319 14.7861H0.6429C0.472392 14.7861 0.308868 14.8538 0.188301 14.9744C0.0677339 15.095 0 15.2585 0 15.429C0 15.5995 0.0677339 15.763 0.188301 15.8836C0.308868 16.0042 0.472392 16.0719 0.6429 16.0719H7.16319C7.30352 16.6232 7.62355 17.1121 8.07271 17.4613C8.52188 17.8104 9.07458 18 9.6435 18C10.2124 18 10.7651 17.8104 11.2143 17.4613C11.6635 17.1121 11.9835 16.6232 12.1238 16.0719H18.6441C18.8146 16.0719 18.9781 16.0042 19.0987 15.8836C19.2193 15.763 19.287 15.5995 19.287 15.429C19.287 15.2585 19.2193 15.095 19.0987 14.9744C18.9781 14.8538 18.8146 14.7861 18.6441 14.7861ZM9.6435 16.7148C9.38919 16.7148 9.1406 16.6394 8.92915 16.4981C8.7177 16.3568 8.5529 16.156 8.45558 15.9211C8.35826 15.6861 8.3328 15.4276 8.38241 15.1782C8.43202 14.9287 8.55448 14.6996 8.7343 14.5198C8.91413 14.34 9.14323 14.2175 9.39265 14.1679C9.64208 14.1183 9.90061 14.1438 10.1356 14.2411C10.3705 14.3384 10.5713 14.5032 10.7126 14.7146C10.8539 14.9261 10.9293 15.1747 10.9293 15.429C10.9293 15.77 10.7938 16.0971 10.5527 16.3382C10.3116 16.5793 9.98452 16.7148 9.6435 16.7148Z" fill="#E5786C"/>
</svg>
