<svg width="32" height="32" viewBox="0 0 32 32" fill="none" xmlns="http://www.w3.org/2000/svg">
<path fill-rule="evenodd" clip-rule="evenodd" d="M11.3893 17.3234C11.4341 18.5509 11.9136 19.7213 12.7404 20.6207C13.1681 21.0541 13.676 21.398 14.2352 21.6326C14.7943 21.8672 15.3937 21.988 15.999 21.988C16.6043 21.988 17.2036 21.8672 17.7628 21.6326C18.3219 21.398 18.8299 21.0541 19.2576 20.6207C19.6868 20.1886 20.0272 19.6748 20.2591 19.1088C20.491 18.5429 20.6098 17.936 20.6087 17.3234C20.6112 18.7335 20.4987 20.1414 20.2725 21.5328C19.9019 23.4542 18.5691 26.6529 15.9988 26.6529C13.4284 26.6529 12.4008 23.3665 11.8383 21.6462C11.2757 19.9259 11.3893 17.3234 11.3893 17.3234Z" fill="url(#paint0_linear_66_782)"/>
<path fill-rule="evenodd" clip-rule="evenodd" d="M15.9988 7.95029C15.9988 7.95029 20.6083 8.4829 20.6083 17.3248C20.6083 26.1668 16.2371 26.6529 16.2371 26.6529C16.2371 26.6529 19.6023 27.0082 22.7106 24.1082C24.1913 22.7266 25.3295 20.5927 25.3332 17.3041C25.337 14.0154 24.2208 11.8351 22.7035 10.4894C19.3155 7.49517 15.9988 7.95029 15.9988 7.95029Z" fill="url(#paint1_linear_66_782)"/>
<path fill-rule="evenodd" clip-rule="evenodd" d="M15.1002 5.41384C16.5506 5.36621 19.3122 5.33333 20.4956 5.33333C21.679 5.33333 25.3326 5.45731 25.3326 9.10546V17.0943C25.3326 17.0943 25.2206 10.3321 19.4251 10.3321C13.6295 10.3321 13.4573 5.45807 15.1002 5.41384Z" fill="#355070"/>
<path fill-rule="evenodd" clip-rule="evenodd" d="M9.42125 23.9354C6.66675 20.9771 6.77881 18.5885 6.66675 17.3233C6.66675 14.8198 12.4242 16.4516 12.1761 17.3233C10.7145 22.4427 13.8627 26.6529 15.999 26.6529C14.7772 26.6794 13.563 26.4519 12.4316 25.9844C11.3002 25.517 10.2756 24.8196 9.42125 23.9354Z" fill="#355070"/>
<path d="M11.0977 14.4648C12.3395 14.4648 13.3461 13.4462 13.3461 12.1896C13.3461 10.9331 12.3395 9.91441 11.0977 9.91441C9.85599 9.91441 8.84937 10.9331 8.84937 12.1896C8.84937 13.4462 9.85599 14.4648 11.0977 14.4648Z" fill="#355070"/>
<defs>
<linearGradient id="paint0_linear_66_782" x1="11.5921" y1="20.6354" x2="16.6077" y2="21.6404" gradientUnits="userSpaceOnUse">
<stop stop-color="#942900"/>
<stop offset="0.16" stop-color="#AE3514"/>
<stop offset="0.36" stop-color="#C94129"/>
<stop offset="0.57" stop-color="#DD4A39"/>
<stop offset="0.79" stop-color="#E94F42"/>
<stop offset="1" stop-color="#ED5145"/>
</linearGradient>
<linearGradient id="paint1_linear_66_782" x1="20.666" y1="13.3417" x2="20.666" y2="10.4743" gradientUnits="userSpaceOnUse">
<stop stop-color="#FF7A6B"/>
<stop offset="0.2" stop-color="#FD7667"/>
<stop offset="0.39" stop-color="#F96B5B"/>
<stop offset="0.58" stop-color="#F15947"/>
<stop offset="0.77" stop-color="#E63F2C"/>
<stop offset="0.96" stop-color="#D71F08"/>
<stop offset="1" stop-color="#D41700"/>
</linearGradient>
</defs>
</svg>
