<svg width="16" height="16" viewBox="0 0 16 16" fill="none" xmlns="http://www.w3.org/2000/svg">
<mask id="mask0_66_740" style="mask-type:alpha" maskUnits="userSpaceOnUse" x="2" y="1" width="12" height="14">
<path fill-rule="evenodd" clip-rule="evenodd" d="M2.97631 10.3097C3.60143 9.68453 4.44928 9.33334 5.33333 9.33334H10.6667C11.5507 9.33334 12.3986 9.68453 13.0237 10.3097C13.6488 10.9348 14 11.7826 14 12.6667V14C14 14.3682 13.7015 14.6667 13.3333 14.6667C12.9651 14.6667 12.6667 14.3682 12.6667 14V12.6667C12.6667 12.1362 12.456 11.6275 12.0809 11.2525C11.7058 10.8774 11.1971 10.6667 10.6667 10.6667H5.33333C4.8029 10.6667 4.29419 10.8774 3.91912 11.2525C3.54405 11.6275 3.33333 12.1362 3.33333 12.6667V14C3.33333 14.3682 3.03486 14.6667 2.66667 14.6667C2.29848 14.6667 2 14.3682 2 14V12.6667C2 11.7826 2.35119 10.9348 2.97631 10.3097Z" fill="#1F2F42"/>
<path fill-rule="evenodd" clip-rule="evenodd" d="M8.00008 2.66668C6.89551 2.66668 6.00008 3.56211 6.00008 4.66668C6.00008 5.77125 6.89551 6.66668 8.00008 6.66668C9.10465 6.66668 10.0001 5.77125 10.0001 4.66668C10.0001 3.56211 9.10465 2.66668 8.00008 2.66668ZM4.66675 4.66668C4.66675 2.82573 6.15913 1.33334 8.00008 1.33334C9.84103 1.33334 11.3334 2.82573 11.3334 4.66668C11.3334 6.50763 9.84103 8.00001 8.00008 8.00001C6.15913 8.00001 4.66675 6.50763 4.66675 4.66668Z" fill="#1F2F42"/>
</mask>
<g mask="url(#mask0_66_740)">
<rect width="16" height="16" fill="#5D738D"/>
</g>
</svg>
