<svg width="46" height="37" viewBox="0 0 46 37" fill="none" xmlns="http://www.w3.org/2000/svg">
<path d="M42.5625 27.25H41.8333V3.1875C41.8333 2.60734 41.6029 2.05094 41.1926 1.6407C40.7824 1.23047 40.226 1 39.6458 1H6.10417C5.52401 1 4.96761 1.23047 4.55737 1.6407C4.14713 2.05094 3.91667 2.60734 3.91667 3.1875V27.25H3.1875C2.60734 27.25 2.05094 27.4805 1.6407 27.8907C1.23047 28.3009 1 28.8573 1 29.4375V30.8958C1 32.2495 1.53776 33.5478 2.49498 34.505C3.45219 35.4622 4.75046 36 6.10417 36H39.6458C40.9995 36 42.2978 35.4622 43.255 34.505C44.2122 33.5478 44.75 32.2495 44.75 30.8958V29.4375C44.75 28.8573 44.5195 28.3009 44.1093 27.8907C43.6991 27.4805 43.1427 27.25 42.5625 27.25ZM5.375 3.1875C5.375 2.99411 5.45182 2.80865 5.58857 2.6719C5.72531 2.53516 5.91078 2.45833 6.10417 2.45833H39.6458C39.8392 2.45833 40.0247 2.53516 40.1614 2.6719C40.2982 2.80865 40.375 2.99411 40.375 3.1875V27.25H5.375V3.1875ZM25.3615 29.6125C25.3215 29.7743 25.2274 29.9175 25.0947 30.0183C24.9621 30.1192 24.7989 30.1715 24.6323 30.1667H21.0958C20.9293 30.1715 20.7661 30.1192 20.6334 30.0183C20.5007 29.9175 20.4066 29.7743 20.3667 29.6125L20.1625 28.7083H25.5875L25.3615 29.6125Z" stroke="#5D738D"/>
<path d="M16.9185 12.8513C16.7259 13.5738 16.3157 14.2195 15.7437 14.701C16.5737 15.131 17.2697 15.7807 17.7558 16.5792C18.2418 17.3777 18.4992 18.2944 18.5 19.2292V22.1458C18.5 22.726 18.2695 23.2824 17.8593 23.6926C17.449 24.1029 16.8926 24.3333 16.3125 24.3333H10.4791C9.89897 24.3333 9.34257 24.1029 8.93233 23.6926C8.52209 23.2824 8.29163 22.726 8.29163 22.1458V19.2292C8.29235 18.2944 8.54978 17.3777 9.03582 16.5792C9.52186 15.7807 10.2179 15.131 11.0479 14.701C10.4759 14.2195 10.0657 13.5738 9.87307 12.8513C9.68041 12.1289 9.71453 11.3646 9.97082 10.6622C10.2271 9.95982 10.6932 9.35319 11.3058 8.92457C11.9185 8.49594 12.6481 8.26605 13.3958 8.26605C14.1435 8.26605 14.8731 8.49594 15.4858 8.92457C16.0984 9.35319 16.5645 9.95982 16.8208 10.6622C17.0771 11.3646 17.1112 12.1289 16.9185 12.8513Z" stroke="#5D738D"/>
<path d="M23.6041 5.375H35.2708C35.851 5.375 36.4074 5.60547 36.8176 6.0157C37.2278 6.42594 37.4583 6.98234 37.4583 7.5625V19.2292C37.4583 19.8093 37.2278 20.3657 36.8176 20.776C36.4074 21.1862 35.851 21.4167 35.2708 21.4167H23.6041C23.024 21.4167 22.4676 21.1862 22.0573 20.776C21.6471 20.3657 21.4166 19.8093 21.4166 19.2292V7.5625C21.4166 6.98234 21.6471 6.42594 22.0573 6.0157C22.4676 5.60547 23.024 5.375 23.6041 5.375Z" stroke="#5D738D"/>
</svg>
